<svg width="196" height="80" viewBox="0 0 196 80" fill="none" xmlns="http://www.w3.org/2000/svg">
<path d="M39.6146 79.2289C30.5888 79.2289 23.249 71.8857 23.249 62.8634V55.9799H32.3654V62.8634C32.3654 66.859 35.619 70.1126 39.6146 70.1126C43.6102 70.1126 46.8638 66.859 46.8638 62.8634V55.9799H55.9801V62.8634C55.9801 71.8892 48.6369 79.2289 39.6146 79.2289Z" fill="#2BFB97"/>
<path d="M39.6146 0C48.6404 0 55.9801 7.34325 55.9801 16.3656V23.249H46.8638V16.3656C46.8638 12.37 43.6102 9.11636 39.6146 9.11636C35.619 9.11636 32.3654 12.37 32.3654 16.3656V23.249H23.249V16.3656C23.249 7.34325 30.5888 0 39.6146 0Z" fill="#2BFB97"/>
<path d="M62.8634 55.9803H55.98V46.864H62.8634C66.859 46.864 70.1126 43.6103 70.1126 39.6148C70.1126 35.6192 66.859 32.3656 62.8634 32.3656H55.98V23.2492H62.8634C71.8892 23.2492 79.229 30.5925 79.229 39.6148C79.229 48.6371 71.8857 55.9803 62.8634 55.9803Z" fill="#0D3C94"/>
<path d="M16.3656 23.2492H23.249V32.3656H16.3656C12.37 32.3656 9.11636 35.6192 9.11636 39.6148C9.11636 43.6103 12.37 46.864 16.3656 46.864H23.249V55.9803H16.3656C7.33977 55.9803 0 48.6371 0 39.6148C0 30.5925 7.34325 23.2492 16.3656 23.2492Z" fill="#0D3C94"/>
<path d="M122.073 14.5077V36.1403H116.802V23.1677L111.964 36.1403H107.71L102.84 23.1364V36.1403H97.5698V14.5077H103.795L109.867 29.4834L115.876 14.5077H122.069H122.073Z" fill="#0D3C94"/>
<path d="M128.807 35.3074C127.462 34.5898 126.403 33.5622 125.633 32.2245C124.863 30.8903 124.477 29.3262 124.477 27.5392C124.477 25.7522 124.867 24.2159 125.647 22.8713C126.427 21.5267 127.497 20.4921 128.852 19.7744C130.207 19.0568 131.729 18.6946 133.412 18.6946C135.094 18.6946 136.617 19.0534 137.972 19.7744C139.327 20.4921 140.396 21.5267 141.177 22.8713C141.957 24.2159 142.347 25.7731 142.347 27.5392C142.347 29.3053 141.95 30.8625 141.159 32.2071C140.368 33.5517 139.288 34.5864 137.923 35.304C136.557 36.025 135.032 36.3838 133.346 36.3838C131.66 36.3838 130.144 36.025 128.8 35.304L128.807 35.3074ZM135.927 30.7162C136.634 29.9777 136.989 28.9187 136.989 27.5427C136.989 26.1667 136.644 25.1077 135.958 24.3692C135.269 23.6307 134.422 23.2614 133.415 23.2614C132.409 23.2614 131.534 23.6272 130.858 24.3553C130.179 25.0833 129.841 26.1493 129.841 27.5427C129.841 28.9361 130.176 29.9777 130.844 30.7162C131.513 31.4547 132.349 31.8239 133.356 31.8239C134.363 31.8239 135.22 31.4547 135.93 30.7162H135.927Z" fill="#0D3C94"/>
<path d="M155.076 36.1402L149.836 28.9293V36.1402H144.566V13.3371H149.836V25.9405L155.044 18.9456H161.548L154.4 27.5742L161.611 36.1402H155.079H155.076Z" fill="#0D3C94"/>
<path d="M162.704 22.8613C163.373 21.5271 164.279 20.4995 165.432 19.7784C166.582 19.0608 167.867 18.6985 169.285 18.6985C170.497 18.6985 171.56 18.9459 172.476 19.437C173.388 19.9282 174.092 20.5761 174.587 21.3774V18.9424H179.857V36.137H174.587V33.702C174.075 34.5032 173.36 35.1512 172.444 35.6423C171.532 36.137 170.466 36.3809 169.253 36.3809C167.857 36.3809 166.582 36.0151 165.432 35.287C164.282 34.559 163.373 33.5209 162.704 32.1763C162.036 30.8316 161.701 29.2745 161.701 27.5083C161.701 25.7422 162.036 24.192 162.704 22.8544V22.8613ZM173.489 24.4324C172.761 23.673 171.873 23.2933 170.824 23.2933C169.776 23.2933 168.888 23.6695 168.16 24.4185C167.428 25.1674 167.066 26.202 167.066 27.5153C167.066 28.8286 167.432 29.8736 168.16 30.6435C168.888 31.4134 169.776 31.8 170.824 31.8C171.873 31.8 172.761 31.4203 173.489 30.6609C174.217 29.9015 174.583 28.8634 174.583 27.5467C174.583 26.2299 174.217 25.1953 173.489 24.4359V24.4324Z" fill="#0D3C94"/>
<path d="M102.753 43.4519V56.3931C102.753 57.6855 103.07 58.6853 103.708 59.382C104.345 60.0787 105.279 60.4305 106.512 60.4305C107.745 60.4305 108.689 60.0822 109.348 59.382C110.006 58.6853 110.334 57.6855 110.334 56.3931V43.4519H115.604V56.3653C115.604 58.2951 115.193 59.9289 114.371 61.2631C113.549 62.5973 112.445 63.604 111.058 64.2833C109.672 64.9591 108.125 65.3005 106.422 65.3005C104.718 65.3005 103.192 64.9661 101.848 64.3007C100.503 63.6319 99.4371 62.6252 98.6568 61.2805C97.8765 59.9359 97.4863 58.2986 97.4863 56.3653V43.4519H102.757H102.753Z" fill="#0D3C94"/>
<path d="M133.489 49.6594C134.69 50.9657 135.29 52.7562 135.29 55.0379V65.0844H130.05V55.7486C130.05 54.599 129.751 53.7037 129.155 53.0662C128.559 52.4288 127.758 52.1118 126.752 52.1118C125.745 52.1118 124.944 52.4322 124.348 53.0662C123.752 53.7037 123.456 54.5955 123.456 55.7486V65.0844H118.186V47.8897H123.456V50.1714C123.989 49.412 124.71 48.8094 125.612 48.3705C126.515 47.9281 127.532 47.7086 128.664 47.7086C130.677 47.7086 132.283 48.36 133.485 49.6663L133.489 49.6594Z" fill="#0D3C94"/>
<path d="M138.668 45.2846C138.083 44.7412 137.791 44.0688 137.791 43.2641C137.791 42.4595 138.083 41.7593 138.668 41.2158C139.254 40.6724 140.01 40.4007 140.933 40.4007C141.856 40.4007 142.58 40.6724 143.166 41.2158C143.751 41.7593 144.043 42.442 144.043 43.2641C144.043 44.0863 143.751 44.7377 143.166 45.2846C142.58 45.828 141.835 46.0997 140.933 46.0997C140.03 46.0997 139.254 45.828 138.668 45.2846ZM143.552 47.8868V65.0814H138.282V47.8868H143.552Z" fill="#0D3C94"/>
<path d="M157.295 60.6151V65.0845H154.613C152.704 65.0845 151.213 64.6177 150.143 63.6806C149.074 62.747 148.541 61.2213 148.541 59.1033V52.2617H146.447V47.8864H148.541V43.6957H153.811V47.8864H157.264V52.2617H153.811V59.1625C153.811 59.6746 153.933 60.0473 154.181 60.2703C154.428 60.4967 154.839 60.6082 155.414 60.6082H157.295V60.6151Z" fill="#0D3C94"/>
<path d="M175.813 57.7482H163.889C163.973 58.8176 164.314 59.6328 164.92 60.1971C165.526 60.7614 166.272 61.0436 167.153 61.0436C168.466 61.0436 169.383 60.4897 169.895 59.3785H175.503C175.214 60.5071 174.698 61.5243 173.946 62.43C173.197 63.3357 172.257 64.0429 171.128 64.555C169.999 65.0671 168.735 65.3248 167.338 65.3248C165.652 65.3248 164.154 64.966 162.841 64.2449C161.524 63.5273 160.5 62.4997 159.758 61.1655C159.019 59.8313 158.65 58.2672 158.65 56.4802C158.65 54.6931 159.016 53.1325 159.744 51.7949C160.472 50.4607 161.496 49.433 162.809 48.7154C164.123 47.9978 165.634 47.6355 167.338 47.6355C169.041 47.6355 170.48 47.9839 171.776 48.6841C173.072 49.3843 174.082 50.3806 174.81 51.6729C175.538 52.9653 175.904 54.4772 175.904 56.2015C175.904 56.6962 175.872 57.2082 175.81 57.7412L175.813 57.7482ZM170.515 54.822C170.515 53.9198 170.208 53.1987 169.592 52.6657C168.975 52.1328 168.205 51.8645 167.282 51.8645C166.359 51.8645 165.652 52.1223 165.049 52.6344C164.443 53.1465 164.067 53.878 163.924 54.822H170.518H170.515Z" fill="#0D3C94"/>
<path d="M178.851 51.8017C179.52 50.4675 180.429 49.4399 181.578 48.7223C182.728 48.0047 184.013 47.6424 185.431 47.6424C186.56 47.6424 187.595 47.8793 188.528 48.3496C189.462 48.8233 190.197 49.4608 190.73 50.262V42.2813H196V65.0844H190.73V62.618C190.239 63.4402 189.531 64.0985 188.619 64.5897C187.706 65.0844 186.64 65.3282 185.431 65.3282C184.013 65.3282 182.728 64.9625 181.578 64.2344C180.429 63.5063 179.52 62.4683 178.851 61.1236C178.182 59.779 177.848 58.2219 177.848 56.4557C177.848 54.6896 178.182 53.1394 178.851 51.8017ZM189.636 53.3728C188.908 52.6134 188.02 52.2337 186.971 52.2337C185.922 52.2337 185.034 52.6099 184.306 53.3589C183.578 54.1078 183.212 55.1424 183.212 56.4557C183.212 57.769 183.578 58.814 184.306 59.5839C185.034 60.3538 185.922 60.7404 186.971 60.7404C188.02 60.7404 188.908 60.3607 189.636 59.6013C190.364 58.8419 190.73 57.8038 190.73 56.4871C190.73 55.1703 190.364 54.1357 189.636 53.3728Z" fill="#0D3C94"/>
</svg>
